<svg width="24" height="24" xmlns="http://www.w3.org/2000/svg"><path d="M14.718 9.282a.96.96 0 00-1.359 0L12 10.64l-1.359-1.36a.961.961 0 10-1.36 1.36l1.36 1.36-1.36 1.359a.962.962 0 001.36 1.359l1.36-1.36 1.358 1.36a.962.962 0 001.36-1.36l-1.36-1.358 1.36-1.36a.96.96 0 000-1.36M12 22C6.477 22 2 17.522 2 12 2 6.477 6.477 2 12 2c5.522 0 10 4.477 10 10 0 5.522-4.478 10-10 10m0-22C5.383 0 0 5.382 0 12c0 6.616 5.383 12 12 12s12-5.384 12-12c0-6.618-5.383-12-12-12" fill="#FFF" fill-rule="evenodd"/></svg>